TITLE ""
FILE "Disc2Track65.mp3" MP3
  TRACK 01 AUDIO
    TITLE "Disc2Track65_01"
    INDEX 01 00:00:00
  TRACK 02 AUDIO
    TITLE "Disc2Track65_02"
    INDEX 01 00:01:12
  TRACK 03 AUDIO
    TITLE "Disc2Track65_03"
    INDEX 01 00:02:19
  TRACK 04 AUDIO
    TITLE "Disc2Track65_04"
    INDEX 01 00:03:46
  TRACK 05 AUDIO
    TITLE "Disc2Track65_05"
    INDEX 01 00:04:12
  TRACK 06 AUDIO
    TITLE "Disc2Track65_06"
    INDEX 01 00:05:47
  TRACK 07 AUDIO
    TITLE "Disc2Track65_07"
    INDEX 01 00:06:56
  TRACK 08 AUDIO
    TITLE "Disc2Track65_08"
    INDEX 01 00:08:18
  TRACK 09 AUDIO
    TITLE "Disc2Track65_09"
    INDEX 01 00:08:57
  TRACK 10 AUDIO
    TITLE "Disc2Track65_10"
    INDEX 01 00:10:05
  TRACK 11 AUDIO
    TITLE "Disc2Track65_11"
    INDEX 01 00:11:22
  TRACK 12 AUDIO
    TITLE "Disc2Track65_12"
    INDEX 01 00:12:47
  TRACK 13 AUDIO
    TITLE "Disc2Track65_13"
    INDEX 01 00:13:05
  TRACK 14 AUDIO
    TITLE "Disc2Track65_14"
    INDEX 01 00:14:34
  TRACK 15 AUDIO
    TITLE "Disc2Track65_15"
    INDEX 01 00:15:69
  TRACK 16 AUDIO
    TITLE "Disc2Track65_16"
    INDEX 01 00:17:22
  TRACK 17 AUDIO
    TITLE "Disc2Track65_17"
    INDEX 01 00:17:62
  TRACK 18 AUDIO
    TITLE "Disc2Track65_18"
    INDEX 01 00:19:08
  TRACK 19 AUDIO
    TITLE "Disc2Track65_19"
    INDEX 01 00:20:11
  TRACK 20 AUDIO
    TITLE "Disc2Track65_20"
    INDEX 01 00:21:32
  TRACK 21 AUDIO
    TITLE "Disc2Track65_21"
    INDEX 01 00:21:65
  TRACK 22 AUDIO
    TITLE "Disc2Track65_22"
    INDEX 01 00:23:15
  TRACK 23 AUDIO
    TITLE "Disc2Track65_23"
    INDEX 01 00:24:21
  TRACK 24 AUDIO
    TITLE "Disc2Track65_24"
    INDEX 01 00:25:46
  TRACK 25 AUDIO
    TITLE "Disc2Track65_25"
    INDEX 01 00:26:08
  TRACK 26 AUDIO
    TITLE "Disc2Track65_26"
    INDEX 01 00:27:33
  TRACK 27 AUDIO
    TITLE "Disc2Track65_27"
    INDEX 01 00:28:46
  TRACK 28 AUDIO
    TITLE "Disc2Track65_28"
    INDEX 01 00:29:73
  TRACK 29 AUDIO
    TITLE "Disc2Track65_29"
    INDEX 01 00:30:33
  TRACK 30 AUDIO
    TITLE "Disc2Track65_30"
    INDEX 01 00:31:58
  TRACK 31 AUDIO
    TITLE "Disc2Track65_31"
    INDEX 01 00:33:08
  TRACK 32 AUDIO
    TITLE "Disc2Track65_32"
    INDEX 01 00:34:37
  TRACK 33 AUDIO
    TITLE "Disc2Track65_33"
    INDEX 01 00:35:01
  TRACK 34 AUDIO
    TITLE "Disc2Track65_34"
    INDEX 01 00:36:18
  TRACK 35 AUDIO
    TITLE "Disc2Track65_35"
    INDEX 01 00:37:43
  TRACK 36 AUDIO
    TITLE "Disc2Track65_36"
    INDEX 01 00:38:62
  TRACK 37 AUDIO
    TITLE "Disc2Track65_37"
    INDEX 01 00:39:28
  TRACK 38 AUDIO
    TITLE "Disc2Track65_38"
    INDEX 01 00:40:65
  TRACK 39 AUDIO
    TITLE "Disc2Track65_39"
    INDEX 01 00:42:13
  TRACK 40 AUDIO
    TITLE "Disc2Track65_40"
    INDEX 01 00:43:49
